PathFileType	4	(X/Y/Z)	RBDS014\RBDS014runT45.trc
DataRate	CameraRate	NumFrames	NumMarkers	Units	OrigDataRate	OrigDataStartFrame	OrigNumFrames
150.000000	150.000000	5	32	mm	150.000000	3937	4500
Frame#	Time	L.ASIS			L.Heel.Bottom			L.Heel.Lateral			L.Heel.Top			L.Iliac.Crest			L.MT1			L.MT5			L.PSIS			L.Shank.Bottom.Lateral			L.Shank.Bottom.Medial			L.Shank.Top.Lateral			L.Shank.Top.Medial			L.Thigh.Bottom.Lateral			L.Thigh.Bottom.Medial			L.Thigh.Top.Lateral			L.Thigh.Top.Medial			R.ASIS			R.ASY			R.Heel.Bottom			R.Heel.Lateral			R.Heel.Top			R.Iliac.Crest			R.MT5			R.PSIS			R.Shank.Bottom.Lateral			R.Shank.Bottom.Medial			R.Shank.Top.Lateral			R.Shank.Top.Medial			R.Thigh.Bottom.Lateral			R.Thigh.Bottom.Medial			R.Thigh.Top.Lateral			R.Thigh.Top.Medial			
		X1	Y1	Z1	X2	Y2	Z2	X3	Y3	Z3	X4	Y4	Z4	X5	Y5	Z5	X6	Y6	Z6	X7	Y7	Z7	X8	Y8	Z8	X9	Y9	Z9	X10	Y10	Z10	X11	Y11	Z11	X12	Y12	Z12	X13	Y13	Z13	X14	Y14	Z14	X15	Y15	Z15	X16	Y16	Z16	X17	Y17	Z17	X18	Y18	Z18	X19	Y19	Z19	X20	Y20	Z20	X21	Y21	Z21	X22	Y22	Z22	X23	Y23	Z23	X24	Y24	Z24	X25	Y25	Z25	X26	Y26	Z26	X27	Y27	Z27	X28	Y28	Z28	X29	Y29	Z29	X30	Y30	Z30	X31	Y31	Z31	X32	Y32	Z32	

3938	26.24666666666667	2166.286712743204	1093.309028671832	898.8476973884776	2257.248924691557	97.53144462213777	968.4798760997675	2280.895507262691	121.2859309659	928.9483944925373	2259.798529553163	148.2952720190316	968.1093033410828	2089.651567502503	1168.521414416697	855.2091925021126	2480.402697307979	146.5366604027935	1032.139008878691	2455.174979523286	129.7171774517367	912.7732777458422	1990.945206523376	1133.017877589583	950.4080768629427	2329.29847917803	280.6561234300315	912.6537497768905	2283.612040149106	283.6389931706709	943.6913631182535	2324.938509119197	359.7636883479537	899.25145617062	2280.954399246297	363.5700432365527	929.736725975107	2287.727663155	779.6479413936926	869.9910650331137	2236.774705252602	734.9590706883305	895.516657310047	2207.606075017835	851.1864297212787	844.2992884157035	2159.91204522204	810.7064046308772	871.0039112412078	2159.339898738571	1073.78435636634	1133.947900333224	1495.873111147569	170.020721828811	1066.077350639943	1373.821454460333	323.7270547849437	997.8020535275832	1389.670496309777	315.8096845630417	1045.079388190837	1423.020363719767	336.3120664659107	1011.524712132011	2134.419212580827	1157.819217144578	1148.566802170305	1423.47772949872	151.5343823959112	1111.384251056538	1994.221213801437	1129.863566641569	1050.12399777677	1505.011663064887	368.7061892342283	1088.28889862939	1498.263834017086	387.9308412346236	1041.28625611088	1554.003599573153	435.8300854041793	1106.654170501947	1542.37576984732	453.7788273795373	1058.004857565081	1901.957244265864	726.7213091948629	1165.893897114248	1850.268385476281	760.7962829016103	1126.472418607187	1946.745010151682	825.5054230503619	1185.733922692505	1900.520397648367	856.892987795638	1144.134402743688	
3939	26.25333333333333	2165.581006931956	1093.514489950433	898.9095992223108	2286.588474109893	85.11416956962915	971.1930986818332	2309.215369135766	109.4325259838948	931.3789275940038	2285.618623395968	135.958962303037	969.6827193057417	2089.217418286426	1168.585325217277	855.564659239936	2504.993201251022	150.4382358066199	1037.927561784345	2483.032370186853	128.8491140271655	917.9522966576856	1990.856436443196	1132.874728174978	951.2796070744027	2347.695578580428	272.4448199469246	913.6058126514516	2301.220251047978	273.107471047514	943.6744149870709	2338.734500106056	350.8519126670911	898.6288190488242	2293.893101906346	352.4023000152942	928.1266655878203	2283.070277470641	774.789507559731	867.1915797420113	2231.757648358988	731.4944737375002	894.0279030665149	2204.138335764406	848.0313290117324	842.7119149495464	2156.141058785921	808.8740392808576	870.7012033205812	2160.818515335295	1074.863148076072	1133.899931873264	1480.357539643987	185.6916187190635	1066.93335063008	1364.941396158345	342.1334465218465	993.0076425032046	1379.712974168275	334.8470844300521	1040.746219148894	1414.450972293664	353.239624783872	1007.2598256704	2135.026331040127	1159.24921504911	1148.513254503949	1406.581889833871	170.7948501994367	1111.456136437295	1995.096318849364	1130.454332039817	1050.891785853499	1496.610021395442	383.040928710573	1085.945426744875	1491.130524997229	402.2137123228458	1038.825284187686	1547.966224263496	448.2719505952892	1104.528226022809	1537.648743002445	466.3145347461173	1055.694100436028	1903.53695883826	728.0296098714459	1165.936723275302	1851.873919964986	762.4005102682388	1126.700285448299	1948.551393774195	826.5808774755573	1186.233036180161	1902.239733497949	858.3072463134878	1144.981630973085	
3940	26.26	2164.747210730555	1093.316191483701	899.0152393789492	2313.325144464283	73.96605004268972	974.0778330788223	2334.728034331428	98.92083226050542	933.9257401048773	2309.031646560813	124.7245792516388	971.5981767718299	2088.685383334648	1168.089878082387	855.8354007983354	2526.802192099069	154.4449969042228	1042.137401795042	2507.435667292474	128.9287376310906	921.8858570222773	1990.568600889843	1132.222277755214	952.020393701937	2363.89687824801	264.8559369682132	914.5421734552704	2316.822313414775	263.2853231595105	943.8071837541327	2350.616023597202	342.3923112984011	898.1404704612293	2305.125326441384	341.7585889243369	926.8157945407402	2277.942281658573	769.4106612547804	864.3530300420261	2226.292008841263	727.6168656732319	892.6713844598072	2200.314104768424	844.4133036189897	841.1474114627742	2152.039181444544	806.6736410417278	870.5385383899912	2162.10819746743	1075.792743329422	1133.979174536653	1465.780447225168	202.4530725933544	1067.136444051534	1356.707710137241	361.0669378751601	988.0344414718618	1370.556333493456	354.4354747702809	1036.173282391087	1406.398428908563	370.7833714522004	1002.719006383899	2134.967839904979	1160.220088127237	1148.640272828405	1391.003129415792	191.1303038210627	1111.06257940372	1995.753480690759	1130.580334927447	1051.529921049628	1489.278449405439	397.9036474123096	1083.311896533894	1485.170513404237	417.0990679046217	1036.102682289073	1543.259645665978	460.8284239571545	1102.235698822625	1534.363791350779	479.0755430478041	1053.256250028642	1906.204266708106	728.2594576139817	1166.339550126256	1854.418626398463	762.5897378337853	1127.219129216646	1951.032079612478	826.8130599474013	1186.841299232012	1904.4444330587	858.567452194858	1145.914503830415	
3941	26.26666666666667	2163.851660588267	1092.786141147765	899.1441053070315	2336.826146549788	64.01860234465607	976.987916688008	2356.856016189386	89.63846103885027	936.4585116055141	2329.508995133986	114.5735979497666	973.7389664018165	2088.061139736448	1167.122126708484	856.0435963741268	2545.554144555238	158.0869034880196	1044.748759598561	2527.997532842695	129.4549305557852	924.5215422672102	1990.157161914538	1131.137597962753	952.6983925190968	2377.522933274702	257.7907551003083	915.4080095280085	2330.076881422714	254.1406560206975	944.120118532514	2360.274796259997	334.3643077945471	897.8032612707522	2314.386145120414	331.6887658826449	925.9096735393775	2272.515368086214	763.7061680216776	861.6394819397851	2220.532352137919	723.4563094929075	891.4793508709723	2196.294516013223	840.4957832384073	839.7096956168218	2147.751362523779	804.2071409453449	870.5008399165982	2163.269324011654	1076.508162526184	1134.148440176677	1452.315384578813	220.12460634652	1066.62751587997	1349.445360082234	380.6951973404859	983.174777703946	1362.536557396533	374.6154232296627	1031.632213215699	1399.220724918318	389.0080654018163	998.179001207783	2134.443384216124	1160.740302073148	1148.920887002795	1376.896504519219	212.3167520456315	1110.14425871841	1996.249748969978	1130.247956883964	1052.101741279999	1483.2439606788	413.1923525570429	1080.576705079113	1480.574388102541	432.4741533151035	1033.302851037717	1540.049375755587	473.3943911789751	1099.922461107091	1532.635746489134	491.955338820716	1050.849866838666	1909.85532500549	727.4134938511912	1167.081657926811	1857.818694109127	761.3782895013602	1127.992917072379	1954.121235136631	826.1990768768379	1187.516069499862	1907.105030671171	857.6727626386854	1146.851527584061	
3942	26.27333333333333	2162.945434660383	1091.983818001051	899.2713243501109	2356.484315574257	55.19966386624473	979.780582209146	2375.077943957442	81.4536563384886	938.8542737514572	2346.561042643144	105.4844098831396	975.9744351420835	2087.344878737378	1165.770549905586	856.2192119709143	2560.99050447007	160.8564226400953	1045.850765153639	2544.412055975329	129.8557671311064	925.902644310604	1989.682210869592	1129.674120234546	953.3909483428905	2388.251872963237	251.1123974293507	916.1497959589623	2340.685214813718	245.6088764814702	944.6254473704499	2367.461764515772	326.7115309614979	897.6137383577802	2321.45169747923	322.2126402196708	925.4726304574175	2266.97315106209	757.8541879786202	859.193701842621	2214.64926255033	719.125152314169	890.4731998012344	2192.237357689776	836.4180942746566	838.4860096034246	2143.422201730784	801.5519959962224	870.5693935342865	2164.359821969707	1076.941515766093	1134.370855530475	1440.16357299711	238.5274789952181	1065.395522864045	1343.537948949006	401.143732289304	978.6978212073951	1356.028629422987	395.4037965657104	1027.37800526526	1393.326930599492	407.9408803403181	993.8993884098288	2133.658968486229	1160.821174027056	1149.326708226298	1364.433026518981	234.1446961477513	1108.677902485403	1996.641106737533	1129.45501409051	1052.682121815628	1478.753653725876	428.7773651274133	1077.932999240374	1477.548337301525	448.2057280526226	1030.621214004976	1538.508366395023	485.8461198012781	1097.745402108129	1532.58670993231	504.8325379710357	1048.646776858449	1914.381735984086	725.5148960012099	1168.113441841367	1861.991811635763	758.8136637216375	1128.962451839547	1957.746729305431	824.7417341382436	1188.21030767159	1910.194067461997	855.6437857992684	1147.714133277448	
